<?xml version="1.0" encoding="UTF-8"?>
<svg id="Layer_1" data-name="Layer 1" xmlns="http://www.w3.org/2000/svg" version="1.1" viewBox="0 0 512 512">
  <defs>
    <style>
      .cls-1 {
        fill: #4caf50;
        stroke: #fff;
        stroke-linejoin: round;
        stroke-width: 15px;
      }
    </style>
  </defs>
  <path class="cls-1" d="M467.19,89h-82.28c-7.57,0-13.71,6.14-13.71,13.71v187.32c0,7.57-6.14,13.71-13.71,13.71h-41.14c-7.57,0-13.71-6.14-13.71-13.71V102.71c0-7.57-6.14-13.71-13.71-13.71h-65.82c-7.57,0-13.71,6.14-13.71,13.71v187.32c0,7.57-6.14,13.71-13.71,13.71h-41.14c-7.57,0-13.71-6.14-13.71-13.71V102.71c0-7.57-6.14-13.71-13.71-13.71H44.81c-7.57,0-13.71,6.14-13.71,13.71v233.43c0,45.47,34.95,82.77,79.44,86.53v.32h356.65c7.57,0,13.71-6.14,13.71-13.71V102.71c0-7.57-6.14-13.71-13.71-13.71Z"/>
</svg>